# xmcd CD database file
#
# Track frame offsets:
#	150
#	15771
#	34338
#	55213
#	80392
#	94997
#	112910
#	127714
#	145953
#	165679
#	184934
#	197774
#	213722
#	230980
#	248238
#
# Disc length: 3517 seconds
#
# Revision: 0
# Processed by: cddbd v1.5.2PL0 Copyright (c) Steve Scherf et al.
# Submitted via: CDex 1.70beta2
#
DISCID=ce0dbb0f
DTITLE=Various Artist - Party Night Blues II
DYEAR=1900
DGENRE=Blues
TTITLE0=Harlem Nocturne - Rick Rossano
TTITLE1=All Your Fault - Nighthawks
TTITLE2=Sweet, Sad, and Lonely - Cathy Ponton King
TTITLE3=I Left My Baby - Roomful of Blues
TTITLE4=Drive Me Home Baby - Groove Doctors
TTITLE5=It Takes A Lot To Laugh, It Takes A Train To Cry - Aquablue
TTITLE6=Good Lover - Lisa Best
TTITLE7=I Got To Know - Jimmy Morello
TTITLE8=Give Me One Reason - Susan Trexler
TTITLE9=The Thrill Is Gone - Ike and Val Woods
TTITLE10=Gangster of Love - Big Joe Maher and Rodger Edsell
TTITLE11=Blues at First Sight - Lisa Best
TTITLE12=Sweet Home Chicago - Big Joe Maher
TTITLE13=When - Sharon B
TTITLE14=September - Debra Hampton
EXTD=
EXTT0=
EXTT1=
EXTT2=
EXTT3=
EXTT4=
EXTT5=
EXTT6=
EXTT7=
EXTT8=
EXTT9=
EXTT10=
EXTT11=
EXTT12=
EXTT13=
EXTT14=
PLAYORDER=
